<?xml version="1.0" encoding="utf-8"?>
<!-- Generator: Adobe Illustrator 16.0.0, SVG Export Plug-In . SVG Version: 6.00 Build 0)  -->
<!DOCTYPE svg PUBLIC "-//W3C//DTD SVG 1.1//EN" "http://www.w3.org/Graphics/SVG/1.1/DTD/svg11.dtd">
<svg version="1.1" id="Capa_1" xmlns="http://www.w3.org/2000/svg" xmlns:xlink="http://www.w3.org/1999/xlink" x="0px" y="0px"
	 width="140px" height="40px" viewBox="0 0 140 40" enable-background="new 0 0 140 40" xml:space="preserve">
<g>
	<g>
		<path fill="#FFFFFF" d="M12.942,13.329c7.203,0,12.711,4.848,12.711,12.851c0,6.968-4.661,12.522-12.711,12.522
			c-8.002,0-12.662-5.555-12.662-12.522C0.281,18.177,5.788,13.329,12.942,13.329z M12.942,33.808c4.85,0,6.121-4.331,6.121-8.379
			c0-3.72-1.977-7.203-6.121-7.203c-4.094,0-6.072,3.577-6.072,7.203C6.87,29.43,8.142,33.808,12.942,33.808z"/>
		<path fill="#FFFFFF" d="M32.433,18.507h-4.661v-4.61h4.661v-3.391c0-4.85,2.73-8.238,7.72-8.238c1.601,0,3.39,0.235,4.613,0.517
			l-0.518,5.227c-0.565-0.329-1.365-0.849-2.73-0.849c-2.118,0-2.778,1.836-2.778,3.721v3.014h5.508v4.61H38.74v19.632h-6.307
			V18.507z"/>
		<path fill="#FFFFFF" d="M50.37,18.507h-4.661v-4.61h4.661v-3.391c0-4.85,2.73-8.238,7.72-8.238c1.601,0,3.391,0.235,4.613,0.517
			l-0.519,5.227c-0.563-0.329-1.364-0.849-2.73-0.849c-2.117,0-2.776,1.836-2.776,3.721v3.014h5.507v4.61h-5.507v19.632H50.37
			V18.507z"/>
		<path fill="#FFFFFF" d="M66.987,13.896h6.308v24.242h-6.308V13.896z"/>
		<path fill="#FFFFFF" d="M81.533,18.507h-4.66v-4.61h4.66V9.046l6.309-2.024v6.875h5.602v4.61h-5.602v11.301
			c0,2.068,0.564,4,2.967,4c1.129,0,2.211-0.236,2.871-0.66l0.188,4.991c-1.316,0.376-2.777,0.563-4.66,0.563
			c-4.941,0-7.674-3.058-7.674-7.861V18.507z"/>
		<path fill="#FFFFFF" d="M116.744,36.772c-2.305,1.271-4.941,1.93-8.33,1.93c-8.004,0-12.664-4.612-12.664-12.567
			c0-7.014,3.719-12.806,11.252-12.806c8.99,0,11.533,6.168,11.533,14.641h-16.76c0.283,3.906,3.014,6.12,6.92,6.12
			c3.061,0,5.697-1.131,8.049-2.447V36.772z M112.51,23.639c-0.189-3.06-1.602-5.695-5.131-5.695c-3.531,0-5.32,2.447-5.604,5.695
			H112.51z"/>
		<path fill="#FFFFFF" d="M138.73,19.121c-1.131-0.518-2.354-0.896-4.285-0.896c-3.906,0-6.4,3.107-6.4,7.673
			c0,4.472,2.117,7.909,6.543,7.909c1.789,0,3.766-0.66,4.848-1.131l0.283,5.225c-1.836,0.565-3.719,0.801-6.309,0.801
			c-7.955,0-11.955-5.412-11.955-12.804c0-7.015,4.141-12.569,11.721-12.569c2.543,0,4.377,0.284,6.119,0.801L138.73,19.121z"/>
	</g>
	<circle fill="#FF7503" cx="70.116" cy="5.056" r="4.054"/>
</g>
</svg>
