<?xml version="1.0" encoding="utf-8"?>
<!-- Generator: Adobe Illustrator 16.0.0, SVG Export Plug-In . SVG Version: 6.00 Build 0)  -->
<!DOCTYPE svg PUBLIC "-//W3C//DTD SVG 1.1//EN" "http://www.w3.org/Graphics/SVG/1.1/DTD/svg11.dtd">
<svg version="1.1" id="Capa_1" xmlns="http://www.w3.org/2000/svg" xmlns:xlink="http://www.w3.org/1999/xlink" x="0px" y="0px"
	 width="141.732px" height="39.833px" viewBox="0 0 141.732 39.833" enable-background="new 0 0 141.732 39.833"
	 xml:space="preserve">
<path fill="#FFFFFF" d="M13.956,13.496c7.203,0,12.711,4.848,12.711,12.851c0,6.968-4.661,12.523-12.711,12.523
	c-8.002,0-12.662-5.556-12.662-12.523C1.293,18.343,6.802,13.496,13.956,13.496 M13.956,33.974c4.85,0,6.121-4.331,6.121-8.379
	c0-3.72-1.977-7.203-6.121-7.203c-4.094,0-6.072,3.577-6.072,7.203C7.883,29.596,9.154,33.974,13.956,33.974"/>
<path fill="#FFFFFF" d="M33.446,18.673h-4.661v-4.61h4.661v-3.391c0-4.85,2.73-8.238,7.72-8.238c1.6,0,3.39,0.235,4.613,0.516
	l-0.518,5.227c-0.565-0.329-1.364-0.849-2.73-0.849c-2.118,0-2.778,1.836-2.778,3.721v3.014h5.508v4.61h-5.508v19.632h-6.307V18.673
	z"/>
<path fill="#FFFFFF" d="M51.383,18.673h-4.661v-4.61h4.661v-3.391c0-4.85,2.73-8.238,7.72-8.238c1.6,0,3.39,0.235,4.613,0.516
	l-0.519,5.227c-0.563-0.329-1.363-0.849-2.73-0.849c-2.117,0-2.776,1.836-2.776,3.721v3.014h5.506v4.61h-5.506v19.632h-6.308V18.673
	z"/>
<rect x="68" y="14.063" fill="#FFFFFF" width="6.309" height="24.242"/>
<path fill="#FFFFFF" d="M82.546,18.673h-4.66v-4.61h4.66V9.212l6.31-2.024v6.875h5.601v4.61h-5.601v11.301c0,2.068,0.563,4,2.965,4
	c1.129,0,2.212-0.236,2.871-0.659l0.188,4.99c-1.317,0.376-2.777,0.563-4.66,0.563c-4.942,0-7.674-3.058-7.674-7.861V18.673z"/>
<path fill="#FFFFFF" d="M117.757,36.939c-2.305,1.271-4.942,1.929-8.332,1.929c-8.002,0-12.662-4.611-12.662-12.566
	c0-7.014,3.719-12.806,11.251-12.806c8.991,0,11.534,6.168,11.534,14.641h-16.76c0.282,3.906,3.014,6.12,6.92,6.12
	c3.06,0,5.696-1.131,8.049-2.447V36.939z M113.523,23.805c-0.189-3.06-1.602-5.695-5.132-5.695c-3.531,0-5.32,2.447-5.603,5.695
	H113.523z"/>
<path fill="#FFFFFF" d="M139.744,19.288c-1.13-0.518-2.354-0.896-4.285-0.896c-3.906,0-6.4,3.108-6.4,7.673
	c0,4.472,2.117,7.91,6.543,7.91c1.789,0,3.767-0.661,4.849-1.131l0.282,5.224c-1.838,0.565-3.719,0.801-6.309,0.801
	c-7.955,0-11.955-5.412-11.955-12.804c0-7.014,4.142-12.569,11.721-12.569c2.541,0,4.377,0.284,6.119,0.801L139.744,19.288z"/>
<path fill="#CF712B" d="M75.183,5.222c0,2.237-1.814,4.054-4.053,4.054c-2.24,0-4.054-1.817-4.054-4.054
	c0-2.24,1.814-4.056,4.054-4.056C73.369,1.167,75.183,2.982,75.183,5.222"/>
</svg>
